<!DOCTYPE svg PUBLIC "-//W3C//DTD SVG 20010904//EN" "http://www.w3.org/TR/2001/REC-SVG-20010904/DTD/svg10.dtd">
<svg version="1.0" xmlns="http://www.w3.org/2000/svg" width="26px" height="26px" viewBox="0 0 260 260" preserveAspectRatio="xMidYMid meet">
<g id="layer1" fill="#f38181" stroke="none">
 <path d="M4 247 c-2 -7 -3 -65 -2 -128 l3 -114 125 0 125 0 0 125 0 125 -123 3 c-95 2 -124 0 -128 -11z m224 -84 c2 -32 -1 -53 -7 -53 -6 0 -11 14 -11 30 0 42 -31 70 -78 70 -45 0 -78 -29 -85 -75 -2 -17 -5 -5 -6 28 l-1 58 93 -3 92 -3 3 -52z m-63 -33 c0 -29 -4 -36 -23 -38 -43 -6 -69 37 -40 66 7 7 24 12 38 10 21 -3 25 -8 25 -38z m60 -70 c0 -8 -10 -16 -22 -18 -22 -3 -32 16 -16 32 12 11 38 2 38 -14z"/>
 </g>

</svg>