<!DOCTYPE svg PUBLIC "-//W3C//DTD SVG 20010904//EN" "http://www.w3.org/TR/2001/REC-SVG-20010904/DTD/svg10.dtd">
<svg version="1.0" xmlns="http://www.w3.org/2000/svg" width="26px" height="21px" viewBox="0 0 260 210" preserveAspectRatio="xMidYMid meet">
<g id="layer1" fill="#f38181" stroke="none">
 <path d="M0 200 c0 -5 11 -10 25 -10 30 0 30 -1 5 -42 -13 -22 -20 -51 -20 -85 0 -55 8 -64 31 -36 8 9 27 22 43 28 28 12 30 11 45 -19 14 -27 21 -31 51 -29 19 2 43 3 52 4 20 1 32 27 19 43 -5 6 -14 30 -20 53 -6 23 -23 56 -37 73 -25 29 -28 30 -110 30 -49 0 -84 -4 -84 -10z"/>
 </g>

</svg>