<!DOCTYPE svg PUBLIC "-//W3C//DTD SVG 20010904//EN" "http://www.w3.org/TR/2001/REC-SVG-20010904/DTD/svg10.dtd">
<svg version="1.0" xmlns="http://www.w3.org/2000/svg" width="13px" height="26px" viewBox="0 0 130 260" preserveAspectRatio="xMidYMid meet">
<g id="layer1" fill="#f38181" stroke="none">
 <path d="M20 200 c0 -33 -4 -60 -10 -60 -5 0 -10 -11 -10 -25 0 -14 5 -25 10 -25 6 0 10 -13 10 -29 0 -41 24 -61 71 -61 35 0 39 3 39 25 0 18 -5 25 -20 25 -13 0 -20 7 -20 20 0 13 7 20 19 20 14 0 18 5 14 20 -3 11 -12 20 -19 20 -11 0 -14 16 -14 65 l0 65 -35 0 -35 0 0 -60z"/>
 </g>

</svg>