<!DOCTYPE svg PUBLIC "-//W3C//DTD SVG 20010904//EN" "http://www.w3.org/TR/2001/REC-SVG-20010904/DTD/svg10.dtd">
<svg version="1.0" xmlns="http://www.w3.org/2000/svg" width="20px" height="26px" viewBox="0 0 200 260" preserveAspectRatio="xMidYMid meet">
<g id="layer1" fill="#f38181" stroke="none">
 <path d="M44 223 c4 -21 10 -64 13 -95 6 -64 24 -88 48 -68 11 9 14 23 9 46 -8 45 3 60 27 38 23 -21 25 -76 3 -98 -22 -23 -51 -20 -80 9 -21 21 -23 30 -18 65 6 35 4 40 -10 34 -48 -18 -38 -112 14 -139 42 -22 102 -19 128 5 17 17 22 32 22 75 0 69 -24 99 -75 93 -29 -3 -35 0 -40 22 -15 58 -51 69 -41 13z"/>
 </g>

</svg>